:SAMPLES-PER-SECOND 30
:FULLY-SPECIFIED
:DEGREES
854
root  16.8729 21.6479 1.92045 133.894 -80.6583 -49.8296
RightUpLeg  -157.936 2.05231 15.8996
RightLeg  92.0022 0.754977 -6.40686
RightFoot  -9.84205 -0.0414863 -1.94227
RightToes  3.49245e-010 0 -3.6325e-017
Spine  12.2694 5.03487 29.9
Spine1  -63.6354 -6.95454 -27.9302
HEad  -18.2801 7.90437 2.18567
LeftShoulder1  -0.00106188 3.59349 9.54361
LeftArm  -65.951 -45.2523 7.36414
LeftForeArm  -22.1567 -55.0643 -17.9014
LeftHand  -0.0489135 8.88991 0.0145206
RightShoulder  -2.32308 20.3683 -20.7565
RightArm  -61.0322 4.71179 15.7738
RightForeArm  -14.5673 70.1624 36.7607
RightHand  -1.68289 14.8988 -10.016
LeftUpLeg  -138.498 27.5834 -27.1546
LeftLeg  113.274 2.80308 -6.57862
LeftFoot  -29.8901 -3.85395 -24.4785
LeftToes  -5.36635e-011 -6.70219e-011 5.24975e-011
855
root  15.5142 22.2388 2.14 177.781 -84.6399 -92.0347
RightUpLeg  -157.711 1.18576 11.1281
RightLeg  91.8147 0.753109 -6.75939
RightFoot  -10.3059 -0.0603391 -1.00501
RightToes  3.49245e-010 0 -3.6325e-017
Spine  9.06235 6.37606 31.1136
Spine1  -62.2549 -6.93766 -32.0737
HEad  -16.6879 8.7993 1.67063
LeftShoulder1  -6.46544e-005 3.54108 8.00694
LeftArm  -63.4263 -44.8952 8.76231
LeftForeArm  -24.5501 -54.1823 -17.4525
LeftHand  -0.0240654 8.55586 0.771603
RightShoulder  -1.99879 19.5915 -19.5549
RightArm  -58.2449 8.20475 14.0466
RightForeArm  -18.2892 68.0802 32.4102
RightHand  -1.58442 15.0853 -9.37468
LeftUpLeg  -135.134 28.7105 -30.372
LeftLeg  111.237 4.61805 -11.3003
LeftFoot  -22.3055 -2.58729 -27.6335
LeftToes  -5.36635e-011 -6.70219e-011 5.24975e-011
856
root  14.1141 22.8575 2.28208 -128.989 -84.0209 -141.641
RightUpLeg  -158.617 -0.401587 7.43259
RightLeg  91.1933 0.726985 -7.5546
RightFoot  -11.5577 -0.077952 0.0240467
RightToes  3.49245e-010 0 -3.6325e-017
Spine  4.55197 8.61131 32.0215
Spine1  -61.0824 -6.44269 -34.9351
HEad  -15.1459 9.29906 1.16545
LeftShoulder1  0.00646203 3.14459 7.43727
LeftArm  -61.6057 -44.6536 8.48236
LeftForeArm  -25.02 -53.9069 -17.3014
LeftHand  -0.0153221 8.788 1.08954
RightShoulder  -2.09948 19.4526 -20.1061
RightArm  -55.799 8.47981 13.4352
RightForeArm  -20.1382 67.1735 30.9336
RightHand  -1.56085 14.9598 -9.29746
LeftUpLeg  -135.362 27.4908 -31.8859
LeftLeg  108.797 5.27456 -14.3429
LeftFoot  -6.30109 1.19358 -26.2603
LeftToes  -5.36635e-011 -6.70219e-011 5.24975e-011
857
root  12.6666 23.4053 2.39691 -95.8597 -79.437 -170.765
RightUpLeg  -159.469 -2.14912 3.65388
RightLeg  90.2199 0.561421 -6.82377
RightFoot  -13.5228 -0.0724273 0.961445
RightToes  3.49245e-010 0 -3.6325e-017
Spine  -0.314383 11.2651 35.7661
Spine1  -57.7662 -6.31817 -42.2525
HEad  -15.2311 9.92131 0.725526
LeftShoulder1  0.00999501 2.90056 7.87552
LeftArm  -61.707 -44.2354 8.54531
LeftForeArm  -26.0552 -53.7151 -17.2374
LeftHand  0.0139592 8.62913 2.07444
RightShoulder  -1.93685 18.5717 -19.6961
RightArm  -55.1969 9.76012 12.1658
RightForeArm  -23.2943 66.056 29.3039
RightHand  -1.662 16.1743 -9.34189
LeftUpLeg  -137.11 25.2822 -35.0563
LeftLeg  106.643 4.82745 -14.8519
LeftFoot  8.80271 3.87378 -22.06
LeftToes  -5.36635e-011 -6.70219e-011 5.24975e-011
858
root  11.6401 23.9374 2.4103 -79.7577 -78.3757 176.23
RightUpLeg  -160.193 -4.96351 3.50775
RightLeg  89.6303 0.504797 -7.49264
RightFoot  -14.9303 -0.0350347 2.13951
RightToes  3.49245e-010 0 -3.6325e-017
Spine  -1.84584 11.6808 33.8033
Spine1  -59.7338 -6.42698 -39.5183
HEad  -14.6319 10.517 -0.679698
LeftShoulder1  0.0211217 2.49852 7.22013
LeftArm  -61.7491 -44.7636 8.57616
LeftForeArm  -25.7314 -53.2848 -16.9484
LeftHand  -0.00653065 8.86043 1.31182
RightShoulder  -1.89961 18.0757 -19.7277
RightArm  -55.7428 9.90788 11.3988
RightForeArm  -23.1772 65.8311 28.9522
RightHand  -1.51847 15.848 -8.70243
LeftUpLeg  -140.681 21.0298 -33.6676
LeftLeg  105.957 3.18121 -10.4088
LeftFoot  13.0479 2.91673 -13.4587
LeftToes  -5.36635e-011 -6.70219e-011 5.24975e-011
859
root  10.5259 24.8014 2.28341 -50.8524 -77.0552 151.725
RightUpLeg  -161.887 -8.68852 5.76026
RightLeg  88.1341 0.316908 -9.23744
RightFoot  -15.9056 -0.0140151 2.35886
RightToes  3.49245e-010 0 -3.6325e-017
Spine  -1.97117 9.55252 32.2977
Spine1  -64.8797 -8.19923 -35.9414
HEad  -14.3965 11.5488 -1.43509
LeftShoulder1  0.0188998 2.38827 7.68996
LeftArm  -62.0485 -44.654 8.59151
LeftForeArm  -25.9041 -53.0243 -16.7968
LeftHand  -0.014379 8.29598 1.17178
RightShoulder  -1.77369 16.9302 -19.604
RightArm  -57.0851 11.013 11.3052
RightForeArm  -23.1123 65.7955 28.8933
RightHand  -1.53687 15.5193 -8.92517
LeftUpLeg  -145.46 13.8856 -32.331
LeftLeg  102.162 0.487887 -3.022
LeftFoot  8.97976 0.982321 -5.84106
LeftToes  -5.36635e-011 -6.70219e-011 5.24975e-011
